<svg xmlns="http://www.w3.org/2000/svg" xmlns:xlink="http://www.w3.org/1999/xlink" viewBox="0 0 482.24 610.09"><defs><style>.cls-1,.cls-6{fill:#1f4c48;}.cls-1{opacity:0.2;}.cls-2{fill:#d3caaf;}.cls-3{fill:#ede3c3;}.cls-4{fill:url(#linear-gradient);}.cls-5{fill:#58514d;}.cls-7{opacity:0.3;}.cls-8{fill:#9b9586;}.cls-9{fill:#918e86;}</style><linearGradient id="linear-gradient" x1="33.75" y1="1.05" x2="514.12" y2="711.6" gradientTransform="translate(1.13 -0.22) rotate(-0.09)" gradientUnits="userSpaceOnUse"><stop offset="0.01" stop-color="#fff"/><stop offset="0.63" stop-color="#fff6d2"/><stop offset="0.84" stop-color="#ffefd4"/><stop offset="1" stop-color="#fffae4"/></linearGradient></defs><g id="Calque_2" data-name="Calque 2"><g id="Layer_1" data-name="Layer 1"><path class="cls-1" d="M482.24,588.34a21.06,21.06,0,0,1-21,21.1l-424.55.65a21.07,21.07,0,0,1-21.1-21L14.7,29.62a21.07,21.07,0,0,1,21-21.1l424.55-.65a21.07,21.07,0,0,1,21.1,21Z"/><path class="cls-2" d="M477.31,580.47a21.07,21.07,0,0,1-21,21.1l-424.55.65a21.07,21.07,0,0,1-21.1-21L9.77,21.75A21.07,21.07,0,0,1,30.8.65L455.35,0a21.07,21.07,0,0,1,21.1,21Z"/><path class="cls-3" d="M475.36,581.18a21.06,21.06,0,0,1-21,21.1l-425.21.66A21.08,21.08,0,0,1,8,581.9l-.86-560A21.08,21.08,0,0,1,28.2.82L453.41.17a21.08,21.08,0,0,1,21.1,21Z"/><path class="cls-4" d="M472.39,580.48a21.08,21.08,0,0,1-21,21.1l-424.55.65a21.07,21.07,0,0,1-21.1-21L4.84,21.76a21.07,21.07,0,0,1,21-21.1L450.43,0a21.06,21.06,0,0,1,21.1,21Z"/><path class="cls-5" d="M41.64,43.12A8.83,8.83,0,1,0,32.82,52,8.83,8.83,0,0,0,41.64,43.12Z"/><path class="cls-5" d="M41.69,80.08a8.83,8.83,0,1,0-8.81,8.84A8.82,8.82,0,0,0,41.69,80.08Z"/><path class="cls-5" d="M41.75,117a8.83,8.83,0,1,0-8.82,8.84A8.83,8.83,0,0,0,41.75,117Z"/><path class="cls-5" d="M41.81,154A8.84,8.84,0,1,0,33,162.83,8.84,8.84,0,0,0,41.81,154Z"/><path class="cls-5" d="M41.86,190.93a8.83,8.83,0,1,0-8.81,8.85A8.82,8.82,0,0,0,41.86,190.93Z"/><path class="cls-5" d="M41.92,227.89a8.83,8.83,0,1,0-8.82,8.84A8.83,8.83,0,0,0,41.92,227.89Z"/><path class="cls-5" d="M42,264.84a8.84,8.84,0,1,0-8.82,8.84A8.83,8.83,0,0,0,42,264.84Z"/><path class="cls-5" d="M42,301.79a8.83,8.83,0,1,0-8.81,8.85A8.83,8.83,0,0,0,42,301.79Z"/><path class="cls-5" d="M42.09,338.74a8.83,8.83,0,1,0-8.82,8.85A8.83,8.83,0,0,0,42.09,338.74Z"/><path class="cls-5" d="M42.15,375.7a8.84,8.84,0,1,0-8.82,8.84A8.83,8.83,0,0,0,42.15,375.7Z"/><path class="cls-5" d="M42.2,412.65a8.83,8.83,0,1,0-8.81,8.84A8.83,8.83,0,0,0,42.2,412.65Z"/><path class="cls-5" d="M42.26,449.6a8.83,8.83,0,1,0-8.82,8.85A8.83,8.83,0,0,0,42.26,449.6Z"/><path class="cls-5" d="M42.32,486.56a8.84,8.84,0,1,0-8.82,8.84A8.83,8.83,0,0,0,42.32,486.56Z"/><path class="cls-5" d="M42.37,523.51a8.83,8.83,0,1,0-8.82,8.84A8.83,8.83,0,0,0,42.37,523.51Z"/><path class="cls-5" d="M42.43,560.46a8.83,8.83,0,1,0-8.82,8.84A8.84,8.84,0,0,0,42.43,560.46Z"/><path class="cls-6" d="M32.82,52a8.75,8.75,0,0,0,1.63-.16,8.83,8.83,0,0,1,0-17.35A8.83,8.83,0,1,0,32.82,52Z"/><path class="cls-6" d="M27.29,80.1a8.84,8.84,0,0,1,7.19-8.69,9.69,9.69,0,0,0-1.63-.15,8.83,8.83,0,1,0,1.66,17.5A8.83,8.83,0,0,1,27.29,80.1Z"/><path class="cls-6" d="M27.35,117.05a8.82,8.82,0,0,1,7.19-8.68,8.83,8.83,0,1,0,0,17.34A8.82,8.82,0,0,1,27.35,117.05Z"/><path class="cls-6" d="M27.41,154a8.82,8.82,0,0,1,7.18-8.68,8.75,8.75,0,0,0-1.63-.16,8.84,8.84,0,1,0,0,17.67,8.75,8.75,0,0,0,1.63-.16A8.83,8.83,0,0,1,27.41,154Z"/><path class="cls-6" d="M27.46,191a8.84,8.84,0,0,1,7.19-8.69,8.83,8.83,0,1,0,0,17.35A8.83,8.83,0,0,1,27.46,191Z"/><path class="cls-6" d="M27.52,227.91a8.84,8.84,0,0,1,7.19-8.69,9.78,9.78,0,0,0-1.63-.15,8.83,8.83,0,1,0,1.65,17.5A8.82,8.82,0,0,1,27.52,227.91Z"/><path class="cls-6" d="M27.58,264.86a8.82,8.82,0,0,1,7.18-8.68,8.75,8.75,0,0,0-1.63-.16,8.83,8.83,0,1,0,0,17.66,8.75,8.75,0,0,0,1.63-.16A8.81,8.81,0,0,1,27.58,264.86Z"/><path class="cls-6" d="M27.63,301.81a8.83,8.83,0,0,1,7.19-8.68,8.75,8.75,0,0,0-1.63-.16,8.84,8.84,0,1,0,1.66,17.51A8.84,8.84,0,0,1,27.63,301.81Z"/><path class="cls-6" d="M27.69,338.77a8.83,8.83,0,0,1,7.19-8.69,8.83,8.83,0,1,0-1.61,17.51,8.75,8.75,0,0,0,1.63-.16A8.82,8.82,0,0,1,27.69,338.77Z"/><path class="cls-6" d="M27.75,375.72A8.84,8.84,0,0,1,34.93,367a9.69,9.69,0,0,0-1.63-.15,8.83,8.83,0,1,0,0,17.66,8.75,8.75,0,0,0,1.63-.16A8.81,8.81,0,0,1,27.75,375.72Z"/><path class="cls-6" d="M27.8,412.67A8.82,8.82,0,0,1,35,404a8.75,8.75,0,0,0-1.63-.16A8.83,8.83,0,1,0,35,421.33,8.83,8.83,0,0,1,27.8,412.67Z"/><path class="cls-6" d="M27.86,449.62a8.82,8.82,0,0,1,7.19-8.68,8.07,8.07,0,0,0-1.64-.15,8.83,8.83,0,1,0,1.66,17.5A8.83,8.83,0,0,1,27.86,449.62Z"/><path class="cls-6" d="M27.92,486.58a8.83,8.83,0,0,1,7.18-8.69,8.75,8.75,0,0,0-1.63-.15,8.83,8.83,0,1,0,0,17.66,8.75,8.75,0,0,0,1.63-.16A8.81,8.81,0,0,1,27.92,486.58Z"/><path class="cls-6" d="M28,523.53a8.83,8.83,0,0,1,7.19-8.68,8.83,8.83,0,1,0,0,17.34A8.83,8.83,0,0,1,28,523.53Z"/><path class="cls-6" d="M28,560.48a8.82,8.82,0,0,1,7.19-8.68,8.83,8.83,0,1,0-1.61,17.5,8.75,8.75,0,0,0,1.63-.16A8.81,8.81,0,0,1,28,560.48Z"/><g class="cls-7"><path class="cls-8" d="M4.22,46.33l-.19,0C.89,45.72.68,44.2.74,43.58c.27-3.16,8.27-3.64,13-3.65,7.25,0,11.65.86,13.08,2.59A1.93,1.93,0,0,1,27.31,44a1.06,1.06,0,0,1-1.22.89,1.07,1.07,0,0,1-.88-1c-.2-.26-1.84-1.85-11.46-1.84-7.14,0-10,1-10.75,1.61a4.77,4.77,0,0,0,1.41.46,1.1,1.1,0,0,1,.85,1.27A1.08,1.08,0,0,1,4.22,46.33Z"/><path class="cls-8" d="M4.23,50.68l-.2,0C.9,50.07.69,48.55.74,47.93c.28-3.16,8.27-3.65,13-3.65,7.25,0,11.65.86,13.08,2.59a1.93,1.93,0,0,1,.49,1.51,1.07,1.07,0,0,1-1.22.89,1.08,1.08,0,0,1-.88-1c-.2-.27-1.85-1.86-11.47-1.84-7.13,0-10,1-10.74,1.6a4.34,4.34,0,0,0,1.4.47,1.09,1.09,0,0,1-.18,2.16Z"/></g><path class="cls-9" d="M3.59,44.16l-.2,0C.17,43.55,0,42,0,41.41c.28-3.16,8.49-3.65,13.36-3.65,7.45,0,12,.86,13.43,2.59a1.89,1.89,0,0,1,.51,1.51,1.09,1.09,0,0,1-2.16-.1c-.21-.26-1.9-1.85-11.78-1.83-7.32,0-10.26,1-11,1.6A4.68,4.68,0,0,0,3.78,42a1.09,1.09,0,0,1-.19,2.16Z"/><path class="cls-9" d="M3.59,48.5H3.4C.17,47.89,0,46.38,0,45.75c.29-3.16,8.5-3.64,13.37-3.65,7.45,0,12,.86,13.43,2.6a1.87,1.87,0,0,1,.5,1.51,1.09,1.09,0,0,1-2.15-.1c-.21-.26-1.9-1.85-11.78-1.83-7.33,0-10.27,1-11,1.6a4.58,4.58,0,0,0,1.45.47,1.08,1.08,0,0,1-.2,2.15Z"/><g class="cls-7"><path class="cls-8" d="M4.28,83.28a.68.68,0,0,1-.2,0C1,82.67.74,81.16.79,80.53c.28-3.16,8.27-3.64,13-3.65,7.25,0,11.65.86,13.08,2.6a1.91,1.91,0,0,1,.49,1.5,1.05,1.05,0,0,1-1.22.89,1.07,1.07,0,0,1-.88-1c-.2-.26-1.85-1.85-11.47-1.84-7.13,0-10,1-10.74,1.61a4.34,4.34,0,0,0,1.4.47,1.07,1.07,0,0,1,.85,1.26A1.06,1.06,0,0,1,4.28,83.28Z"/><path class="cls-8" d="M4.28,87.63l-.19,0C1,87,.74,85.5.8,84.88c.28-3.16,8.27-3.64,13-3.65,7.25,0,11.65.86,13.07,2.59a2,2,0,0,1,.5,1.51,1.06,1.06,0,0,1-2.1-.09c-.21-.26-1.85-1.85-11.47-1.84-7.13,0-10,1-10.75,1.61a4.59,4.59,0,0,0,1.41.46,1.08,1.08,0,0,1,.85,1.27A1.07,1.07,0,0,1,4.28,87.63Z"/></g><path class="cls-9" d="M3.64,81.11l-.2,0C.22,80.5,0,79,.06,78.36c.29-3.16,8.5-3.64,13.37-3.65,7.45,0,12,.86,13.43,2.59a1.87,1.87,0,0,1,.5,1.51,1.08,1.08,0,0,1-2.15-.09c-.21-.26-1.9-1.85-11.78-1.84-7.33,0-10.27,1.05-11,1.61A4.65,4.65,0,0,0,3.84,79a1.09,1.09,0,0,1-.2,2.16Z"/><path class="cls-9" d="M3.65,85.46l-.2,0C.23,84.85,0,83.33.07,82.71c.29-3.16,8.5-3.65,13.36-3.66,7.45,0,12,.87,13.44,2.6a1.9,1.9,0,0,1,.5,1.51,1.08,1.08,0,0,1-2.15-.1c-.21-.26-1.9-1.85-11.78-1.83-7.33,0-10.27,1-11,1.6a4.59,4.59,0,0,0,1.44.47,1.09,1.09,0,0,1-.19,2.16Z"/><g class="cls-7"><path class="cls-8" d="M4.33,120.23H4.14C1,119.63.79,118.11.85,117.48c.28-3.15,8.27-3.64,13-3.65,7.25,0,11.65.87,13.07,2.6a2,2,0,0,1,.5,1.51,1.07,1.07,0,0,1-1.23.89,1.09,1.09,0,0,1-.87-1c-.21-.26-1.85-1.85-11.47-1.83-7.13,0-10,1-10.75,1.6a4.52,4.52,0,0,0,1.41.47,1.07,1.07,0,0,1,.85,1.26A1.06,1.06,0,0,1,4.33,120.23Z"/><path class="cls-8" d="M4.34,124.58a.62.62,0,0,1-.19,0C1,124,.8,122.46.85,121.83c.28-3.16,8.27-3.64,13-3.65,7.24,0,11.64.86,13.07,2.6a1.91,1.91,0,0,1,.49,1.5,1,1,0,0,1-1.22.89,1.07,1.07,0,0,1-.88-1c-.2-.26-1.85-1.85-11.46-1.83-7.14,0-10,1-10.75,1.6a4.15,4.15,0,0,0,1.41.46,1.1,1.1,0,0,1,.85,1.27A1.08,1.08,0,0,1,4.34,124.58Z"/></g><path class="cls-9" d="M3.7,118.06a.68.68,0,0,1-.2,0c-3.22-.59-3.44-2.1-3.38-2.73.29-3.16,8.5-3.64,13.36-3.65,7.45,0,12,.86,13.44,2.59a1.91,1.91,0,0,1,.5,1.51,1.08,1.08,0,0,1-2.15-.09c-.21-.26-1.9-1.85-11.78-1.84-7.33,0-10.27,1-11,1.61a4.39,4.39,0,0,0,1.44.46,1.09,1.09,0,0,1-.19,2.16Z"/><path class="cls-9" d="M3.71,122.41l-.2,0C.29,121.8.07,120.28.13,119.66.41,116.5,8.62,116,13.49,116c7.45,0,12,.86,13.43,2.59a1.9,1.9,0,0,1,.51,1.51,1.09,1.09,0,0,1-2.16-.09c-.21-.26-1.9-1.85-11.78-1.84-7.32,0-10.26,1-11,1.61a5.05,5.05,0,0,0,1.45.46,1.09,1.09,0,0,1-.19,2.16Z"/><g class="cls-7"><path class="cls-8" d="M4.39,157.19l-.19,0c-3.14-.59-3.35-2.11-3.3-2.73.28-3.16,8.27-3.65,13-3.65,7.25,0,11.65.86,13.08,2.59a1.93,1.93,0,0,1,.49,1.51,1.06,1.06,0,0,1-1.22.89,1.08,1.08,0,0,1-.88-1c-.2-.26-1.85-1.85-11.46-1.84-7.14,0-10,1-10.75,1.6a4.33,4.33,0,0,0,1.41.47,1.1,1.1,0,0,1,.85,1.27A1.08,1.08,0,0,1,4.39,157.19Z"/><path class="cls-8" d="M4.4,161.53H4.2c-3.13-.59-3.34-2.11-3.29-2.74.28-3.16,8.27-3.64,13-3.65,7.25,0,11.65.87,13.08,2.6a1.92,1.92,0,0,1,.49,1.51,1.07,1.07,0,0,1-1.22.89,1.08,1.08,0,0,1-.88-1c-.2-.26-1.85-1.85-11.47-1.83-7.13,0-10,1.05-10.74,1.6a4.34,4.34,0,0,0,1.4.47,1.07,1.07,0,0,1,.85,1.26A1,1,0,0,1,4.4,161.53Z"/></g><path class="cls-9" d="M3.76,155h-.2c-3.22-.59-3.44-2.11-3.38-2.74.28-3.15,8.49-3.64,13.36-3.65,7.45,0,12,.86,13.43,2.6a1.89,1.89,0,0,1,.51,1.51,1.09,1.09,0,0,1-2.16-.1c-.21-.26-1.9-1.85-11.78-1.83-7.33,0-10.26,1.05-11,1.6a4.68,4.68,0,0,0,1.45.47A1.08,1.08,0,0,1,3.76,155Z"/><path class="cls-9" d="M3.76,159.36l-.2,0c-3.22-.59-3.43-2.1-3.38-2.73.29-3.16,8.5-3.64,13.37-3.65,7.44,0,12,.86,13.43,2.59a1.88,1.88,0,0,1,.5,1.51,1.08,1.08,0,0,1-2.15-.09c-.21-.26-1.9-1.85-11.78-1.84-7.33,0-10.27,1.05-11,1.61A4.39,4.39,0,0,0,4,157.2a1.09,1.09,0,0,1-.2,2.16Z"/><g class="cls-7"><path class="cls-8" d="M4.45,194.14l-.2,0C1.12,193.53.91,192,1,191.39c.28-3.16,8.27-3.64,13-3.65,7.25,0,11.65.86,13.08,2.59a1.93,1.93,0,0,1,.49,1.51,1.06,1.06,0,0,1-2.1-.09c-.2-.26-1.85-1.85-11.47-1.84-7.13,0-10,1.05-10.74,1.61a4.15,4.15,0,0,0,1.4.46,1.08,1.08,0,0,1,.85,1.27A1.06,1.06,0,0,1,4.45,194.14Z"/><path class="cls-8" d="M4.45,198.49l-.19,0c-3.14-.59-3.35-2.11-3.29-2.73.27-3.16,8.27-3.65,13-3.65,7.25,0,11.65.86,13.07,2.59a1.89,1.89,0,0,1,.49,1.51,1.06,1.06,0,0,1-1.22.89,1.07,1.07,0,0,1-.87-1c-.21-.26-1.85-1.85-11.47-1.84-7.13,0-10,1.05-10.75,1.6a4.52,4.52,0,0,0,1.41.47,1.08,1.08,0,0,1,.85,1.26A1.07,1.07,0,0,1,4.45,198.49Z"/></g><path class="cls-9" d="M3.81,192l-.2,0c-3.22-.59-3.43-2.11-3.38-2.73.29-3.16,8.5-3.65,13.37-3.65,7.44,0,12,.86,13.43,2.59a1.87,1.87,0,0,1,.5,1.51,1.08,1.08,0,0,1-2.15-.09c-.21-.27-1.9-1.86-11.78-1.84-7.33,0-10.27,1-11,1.6a4.58,4.58,0,0,0,1.45.47,1.09,1.09,0,0,1-.2,2.16Z"/><path class="cls-9" d="M3.82,196.31h-.2C.4,195.71.18,194.19.24,193.56c.28-3.16,8.5-3.64,13.36-3.65,7.45,0,12,.86,13.44,2.6a1.9,1.9,0,0,1,.5,1.51,1.09,1.09,0,0,1-2.15-.1c-.21-.26-1.9-1.85-11.78-1.83-7.33,0-10.27,1-11,1.6a4.59,4.59,0,0,0,1.44.47,1.08,1.08,0,0,1-.19,2.15Z"/><g class="cls-7"><path class="cls-8" d="M4.5,231.09a.62.62,0,0,1-.19,0C1.17,230.48,1,229,1,228.34c.27-3.16,8.27-3.64,13-3.65,7.25,0,11.65.86,13.07,2.6a1.87,1.87,0,0,1,.49,1.5,1,1,0,0,1-1.22.89,1.06,1.06,0,0,1-.87-1c-.21-.26-1.85-1.85-11.47-1.83-7.13,0-10,1-10.75,1.6a4.52,4.52,0,0,0,1.41.47,1.09,1.09,0,0,1-.19,2.15Z"/><path class="cls-8" d="M4.51,235.44l-.19,0c-3.14-.59-3.35-2.11-3.3-2.73.28-3.16,8.27-3.64,13-3.65,7.25,0,11.65.86,13.08,2.59a1.93,1.93,0,0,1,.49,1.51,1.06,1.06,0,0,1-1.22.89,1.07,1.07,0,0,1-.88-1c-.2-.26-1.85-1.85-11.46-1.84-7.14,0-10,1-10.75,1.61a4.39,4.39,0,0,0,1.41.46,1.1,1.1,0,0,1,.85,1.27A1.08,1.08,0,0,1,4.51,235.44Z"/></g><path class="cls-9" d="M3.87,228.92l-.2,0c-3.22-.59-3.44-2.11-3.38-2.73.28-3.16,8.5-3.64,13.36-3.65,7.45,0,12,.86,13.44,2.59a1.91,1.91,0,0,1,.5,1.51,1.08,1.08,0,0,1-2.15-.09c-.21-.26-1.9-1.85-11.78-1.84-7.33,0-10.27,1.05-11,1.61a4.39,4.39,0,0,0,1.44.46,1.09,1.09,0,0,1-.19,2.16Z"/><path class="cls-9" d="M3.88,233.27l-.2,0C.46,232.66.24,231.14.3,230.52c.28-3.16,8.49-3.65,13.36-3.65,7.45,0,12,.86,13.43,2.59A1.89,1.89,0,0,1,27.6,231a1.09,1.09,0,0,1-2.16-.1c-.21-.26-1.9-1.85-11.78-1.83-7.32,0-10.26,1.05-11,1.6a4.68,4.68,0,0,0,1.45.47,1.09,1.09,0,0,1-.19,2.16Z"/><g class="cls-7"><path class="cls-8" d="M4.56,268H4.37c-3.14-.59-3.35-2.11-3.3-2.74.28-3.15,8.27-3.64,13-3.65,7.25,0,11.65.87,13.08,2.6a1.92,1.92,0,0,1,.49,1.51,1.06,1.06,0,0,1-1.22.89,1.08,1.08,0,0,1-.88-1c-.2-.26-1.85-1.85-11.46-1.83-7.14,0-10,1.05-10.75,1.6a4.33,4.33,0,0,0,1.41.47,1.09,1.09,0,0,1,.85,1.26A1.07,1.07,0,0,1,4.56,268Z"/><path class="cls-8" d="M4.57,272.39a.68.68,0,0,1-.2,0c-3.13-.59-3.34-2.1-3.29-2.73.28-3.16,8.27-3.64,13-3.65,7.25,0,11.65.86,13.08,2.6a1.91,1.91,0,0,1,.49,1.5,1.05,1.05,0,0,1-1.22.89,1.07,1.07,0,0,1-.88-1c-.21-.26-1.85-1.85-11.47-1.83-7.13,0-10,1-10.74,1.6a4.15,4.15,0,0,0,1.4.46,1.08,1.08,0,0,1,.85,1.27A1.06,1.06,0,0,1,4.57,272.39Z"/></g><path class="cls-9" d="M3.93,265.87a.65.65,0,0,1-.2,0c-3.22-.59-3.44-2.1-3.38-2.73.28-3.16,8.49-3.64,13.36-3.65,7.45,0,12,.86,13.43,2.6a1.87,1.87,0,0,1,.51,1.5,1.09,1.09,0,0,1-2.16-.09c-.21-.26-1.9-1.85-11.78-1.84-7.32,0-10.26,1.05-11,1.61a4.68,4.68,0,0,0,1.45.47,1.08,1.08,0,0,1-.19,2.15Z"/><path class="cls-9" d="M3.93,270.22l-.2,0C.51,269.61.3,268.09.35,267.47c.29-3.16,8.5-3.64,13.37-3.65,7.44,0,12,.86,13.43,2.59a1.87,1.87,0,0,1,.5,1.51,1.08,1.08,0,0,1-2.15-.09c-.21-.26-1.9-1.85-11.78-1.84-7.33,0-10.27,1.05-11,1.61a4.65,4.65,0,0,0,1.45.46,1.09,1.09,0,0,1-.2,2.16Z"/><g class="cls-7"><path class="cls-8" d="M4.62,305l-.2,0c-3.13-.59-3.34-2.11-3.29-2.73.28-3.16,8.27-3.64,13-3.65,7.25,0,11.65.86,13.08,2.59a1.93,1.93,0,0,1,.49,1.51,1.07,1.07,0,0,1-1.22.89,1.08,1.08,0,0,1-.88-1c-.21-.26-1.85-1.85-11.47-1.84-7.13,0-10,1.05-10.74,1.6a4.34,4.34,0,0,0,1.4.47,1.08,1.08,0,0,1,.85,1.27A1.06,1.06,0,0,1,4.62,305Z"/><path class="cls-8" d="M4.62,309.34H4.43c-3.14-.59-3.35-2.11-3.29-2.74.27-3.15,8.27-3.64,13-3.64,7.25,0,11.65.86,13.07,2.59a1.88,1.88,0,0,1,.49,1.51,1.06,1.06,0,0,1-1.22.89,1.07,1.07,0,0,1-.87-1c-.21-.26-1.85-1.85-11.47-1.83-7.13,0-10,1.05-10.75,1.6a4.42,4.42,0,0,0,1.41.47,1.07,1.07,0,0,1,.85,1.26A1.06,1.06,0,0,1,4.62,309.34Z"/></g><path class="cls-9" d="M4,302.82h-.2C.56,302.22.35,300.7.4,300.07c.29-3.16,8.5-3.64,13.37-3.65,7.44,0,12,.86,13.43,2.6a1.85,1.85,0,0,1,.5,1.5,1.08,1.08,0,0,1-2.15-.09c-.21-.26-1.9-1.85-11.78-1.83-7.33,0-10.27,1-11,1.6a4.58,4.58,0,0,0,1.45.47,1.08,1.08,0,0,1-.2,2.15Z"/><path class="cls-9" d="M4,307.17a.68.68,0,0,1-.2,0c-3.22-.59-3.44-2.1-3.38-2.73.28-3.16,8.5-3.64,13.36-3.65,7.45,0,12,.86,13.44,2.59a1.91,1.91,0,0,1,.5,1.51,1.09,1.09,0,0,1-1.25.89,1.07,1.07,0,0,1-.9-1c-.21-.26-1.9-1.85-11.78-1.83-7.33,0-10.27,1-11,1.6a4.31,4.31,0,0,0,1.44.46A1.09,1.09,0,0,1,4,307.17Z"/><g class="cls-7"><path class="cls-8" d="M4.67,342l-.19,0c-3.14-.59-3.35-2.11-3.29-2.73.27-3.16,8.27-3.64,13-3.65,7.25,0,11.65.86,13.07,2.59a1.93,1.93,0,0,1,.49,1.51,1.05,1.05,0,0,1-2.09-.09c-.21-.26-1.85-1.85-11.47-1.84-7.13,0-10,1-10.75,1.61a4.33,4.33,0,0,0,1.41.46,1.09,1.09,0,0,1,.85,1.27A1.07,1.07,0,0,1,4.67,342Z"/><path class="cls-8" d="M4.68,346.3l-.19,0c-3.14-.59-3.35-2.11-3.3-2.73.28-3.16,8.27-3.65,13-3.65,7.25,0,11.65.86,13.08,2.59a1.92,1.92,0,0,1,.49,1.51,1.07,1.07,0,0,1-1.22.89,1.08,1.08,0,0,1-.88-1c-.2-.26-1.85-1.85-11.46-1.84-7.14,0-10,1.05-10.75,1.61a4.66,4.66,0,0,0,1.41.46,1.1,1.1,0,0,1,.85,1.27A1.08,1.08,0,0,1,4.68,346.3Z"/></g><path class="cls-9" d="M4,339.78l-.2,0C.62,339.17.4,337.65.46,337c.28-3.16,8.49-3.65,13.36-3.65,7.45,0,12,.86,13.44,2.59a1.9,1.9,0,0,1,.5,1.51,1.08,1.08,0,0,1-2.15-.09c-.22-.27-1.9-1.85-11.78-1.84-7.33,0-10.27,1.05-11,1.61a5,5,0,0,0,1.44.46A1.09,1.09,0,0,1,4,339.78Z"/><path class="cls-9" d="M4.05,344.12a.65.65,0,0,1-.2,0C.63,343.52.41,342,.47,341.37c.28-3.16,8.49-3.64,13.36-3.65,7.45,0,12,.87,13.43,2.6a1.89,1.89,0,0,1,.51,1.51,1.09,1.09,0,0,1-2.16-.1c-.21-.26-1.9-1.85-11.78-1.83-7.33,0-10.26,1.05-11,1.6a4.68,4.68,0,0,0,1.45.47,1.08,1.08,0,0,1-.19,2.15Z"/><g class="cls-7"><path class="cls-8" d="M4.73,378.9a.58.58,0,0,1-.19,0c-3.14-.59-3.35-2.1-3.3-2.73.28-3.16,8.27-3.64,13-3.65,7.25,0,11.65.87,13.08,2.6a1.92,1.92,0,0,1,.49,1.51,1.05,1.05,0,0,1-1.22.88,1.06,1.06,0,0,1-.88-1c-.2-.26-1.85-1.85-11.46-1.83-7.14,0-10,1-10.75,1.6a4.33,4.33,0,0,0,1.41.47A1.08,1.08,0,0,1,5.77,378,1.07,1.07,0,0,1,4.73,378.9Z"/><path class="cls-8" d="M4.74,383.25l-.2,0c-3.13-.59-3.34-2.11-3.29-2.73.28-3.16,8.27-3.64,13-3.65,7.25,0,11.65.86,13.08,2.59a1.93,1.93,0,0,1,.49,1.51,1.06,1.06,0,0,1-2.1-.09c-.2-.26-1.85-1.85-11.47-1.84-7.13,0-10,1.05-10.74,1.61a4.4,4.4,0,0,0,1.4.46,1.08,1.08,0,0,1,.85,1.27A1.06,1.06,0,0,1,4.74,383.25Z"/></g><path class="cls-9" d="M4.1,376.73l-.2,0C.68,376.12.46,374.6.52,374c.28-3.16,8.49-3.64,13.36-3.65,7.45,0,12,.86,13.43,2.59a1.9,1.9,0,0,1,.51,1.51,1.09,1.09,0,0,1-2.16-.09c-.21-.26-1.9-1.85-11.78-1.84-7.33,0-10.26,1.05-11,1.61a4.75,4.75,0,0,0,1.45.46,1.09,1.09,0,0,1-.19,2.16Z"/><path class="cls-9" d="M4.1,381.08l-.2,0C.68,380.47.47,379,.52,378.33c.29-3.16,8.5-3.65,13.37-3.65,7.44,0,12,.86,13.43,2.59a1.87,1.87,0,0,1,.5,1.51,1.08,1.08,0,0,1-2.15-.09c-.21-.27-1.9-1.85-11.78-1.84-7.33,0-10.27,1-11,1.61a5,5,0,0,0,1.44.46,1.09,1.09,0,0,1-.19,2.16Z"/><g class="cls-7"><path class="cls-8" d="M4.79,415.85h-.2c-3.13-.59-3.34-2.11-3.29-2.74.28-3.15,8.27-3.64,13-3.65,7.25,0,11.65.87,13.08,2.6a1.92,1.92,0,0,1,.49,1.51,1.07,1.07,0,0,1-1.22.89,1.08,1.08,0,0,1-.88-1c-.21-.26-1.85-1.85-11.47-1.83-7.13,0-10,1.05-10.74,1.6a4.34,4.34,0,0,0,1.4.47A1.07,1.07,0,0,1,5.82,415,1,1,0,0,1,4.79,415.85Z"/><path class="cls-8" d="M4.79,420.2a.62.62,0,0,1-.19,0c-3.14-.59-3.35-2.1-3.29-2.73.27-3.16,8.27-3.64,13-3.65,7.25,0,11.65.86,13.07,2.6a1.91,1.91,0,0,1,.49,1.5,1,1,0,0,1-1.22.89,1.05,1.05,0,0,1-.87-1c-.21-.26-1.85-1.85-11.47-1.83-7.13,0-10,1-10.75,1.6a4.52,4.52,0,0,0,1.41.47,1.09,1.09,0,0,1-.19,2.15Z"/></g><path class="cls-9" d="M4.15,413.68a.71.71,0,0,1-.2,0c-3.22-.59-3.43-2.1-3.38-2.73.29-3.16,8.5-3.64,13.37-3.65,7.44,0,12,.86,13.43,2.59a1.88,1.88,0,0,1,.5,1.51,1.08,1.08,0,0,1-2.15-.09c-.21-.26-1.9-1.85-11.78-1.83-7.33,0-10.27,1-11,1.6a4.39,4.39,0,0,0,1.44.46,1.09,1.09,0,0,1-.19,2.16Z"/><path class="cls-9" d="M4.16,418,4,418C.74,417.42.52,415.9.58,415.28c.28-3.16,8.49-3.64,13.36-3.65,7.45,0,12,.86,13.44,2.59a1.91,1.91,0,0,1,.5,1.51,1.09,1.09,0,0,1-1.25.89,1.07,1.07,0,0,1-.9-1c-.22-.26-1.9-1.85-11.78-1.84-7.33,0-10.27,1.05-11,1.61a4.31,4.31,0,0,0,1.44.46A1.09,1.09,0,0,1,4.16,418Z"/><g class="cls-7"><path class="cls-8" d="M4.84,452.81l-.19,0c-3.14-.59-3.35-2.11-3.29-2.73.27-3.16,8.27-3.65,13-3.65,7.25,0,11.65.86,13.07,2.59a1.93,1.93,0,0,1,.49,1.51,1.06,1.06,0,0,1-1.22.89,1.07,1.07,0,0,1-.87-1c-.21-.26-1.85-1.85-11.47-1.84-7.13,0-10,1.05-10.75,1.61a4.77,4.77,0,0,0,1.41.46,1.09,1.09,0,0,1,.85,1.27A1.07,1.07,0,0,1,4.84,452.81Z"/><path class="cls-8" d="M4.85,457.16l-.19,0c-3.14-.59-3.35-2.11-3.3-2.74.28-3.16,8.27-3.64,13-3.65,7.25,0,11.65.87,13.08,2.6a1.92,1.92,0,0,1,.49,1.51,1.07,1.07,0,0,1-1.22.89,1.08,1.08,0,0,1-.88-1c-.2-.26-1.85-1.85-11.46-1.83-7.14,0-10,1.05-10.75,1.6A4.33,4.33,0,0,0,5,455a1.09,1.09,0,0,1-.19,2.16Z"/></g><path class="cls-9" d="M4.21,450.63H4C.79,450,.57,448.51.63,447.89c.28-3.16,8.49-3.65,13.36-3.65,7.45,0,12,.86,13.44,2.59a1.9,1.9,0,0,1,.5,1.51,1.09,1.09,0,0,1-1.25.89,1.1,1.1,0,0,1-.91-1c-.21-.26-1.89-1.85-11.77-1.83-7.33,0-10.27,1-11,1.6a4.49,4.49,0,0,0,1.44.47,1.08,1.08,0,0,1-.19,2.15Z"/><path class="cls-9" d="M4.22,455a.65.65,0,0,1-.2,0c-3.22-.59-3.44-2.1-3.38-2.73.28-3.16,8.49-3.64,13.36-3.65,7.45,0,12,.86,13.43,2.6a1.87,1.87,0,0,1,.51,1.5,1.09,1.09,0,0,1-1.26.89,1.07,1.07,0,0,1-.9-1c-.21-.26-1.9-1.85-11.78-1.84-7.33,0-10.27,1.05-11,1.61a4.68,4.68,0,0,0,1.45.47A1.08,1.08,0,0,1,4.22,455Z"/><g class="cls-7"><path class="cls-8" d="M4.9,489.76l-.19,0c-3.14-.59-3.35-2.11-3.3-2.73.28-3.16,8.27-3.64,13-3.65,7.25,0,11.65.86,13.08,2.59a1.93,1.93,0,0,1,.49,1.51,1.06,1.06,0,0,1-2.1-.09c-.2-.26-1.85-1.85-11.46-1.84-7.14,0-10,1.05-10.75,1.61a4.15,4.15,0,0,0,1.41.46,1.1,1.1,0,0,1,.85,1.27A1.08,1.08,0,0,1,4.9,489.76Z"/><path class="cls-8" d="M4.91,494.11l-.2,0c-3.13-.59-3.34-2.11-3.29-2.73.28-3.16,8.27-3.64,13-3.65,7.25,0,11.65.86,13.08,2.59a1.93,1.93,0,0,1,.49,1.51,1.07,1.07,0,0,1-1.22.89,1.08,1.08,0,0,1-.88-1c-.21-.26-1.85-1.85-11.47-1.84-7.13,0-10,1.05-10.75,1.61a4.89,4.89,0,0,0,1.41.46,1.08,1.08,0,0,1,.85,1.27A1.06,1.06,0,0,1,4.91,494.11Z"/></g><path class="cls-9" d="M4.27,487.59l-.2,0C.85,487,.63,485.46.69,484.84c.28-3.16,8.49-3.64,13.36-3.65,7.45,0,12,.86,13.43,2.59a1.89,1.89,0,0,1,.51,1.51,1.09,1.09,0,0,1-2.16-.09c-.21-.26-1.9-1.85-11.78-1.84-7.33,0-10.27,1.05-11,1.61a5.05,5.05,0,0,0,1.45.46,1.09,1.09,0,0,1-.19,2.16Z"/><path class="cls-9" d="M4.27,491.93h-.2c-3.22-.59-3.43-2.11-3.38-2.74.29-3.16,8.5-3.64,13.37-3.65,7.44,0,12,.87,13.43,2.6a1.87,1.87,0,0,1,.5,1.51,1.08,1.08,0,0,1-2.15-.1c-.21-.26-1.9-1.85-11.78-1.83-7.33,0-10.27,1.05-11,1.6a4.58,4.58,0,0,0,1.45.47,1.08,1.08,0,0,1-.2,2.15Z"/><g class="cls-7"><path class="cls-8" d="M5,526.71a.68.68,0,0,1-.2,0c-3.13-.58-3.34-2.1-3.29-2.73.28-3.16,8.27-3.64,13-3.65,7.25,0,11.65.86,13.08,2.6a1.91,1.91,0,0,1,.49,1.5,1.07,1.07,0,0,1-1.22.9,1.08,1.08,0,0,1-.88-1c-.21-.26-1.85-1.85-11.47-1.83-7.13,0-10,1-10.75,1.6a4.52,4.52,0,0,0,1.41.47A1.07,1.07,0,0,1,6,525.82,1,1,0,0,1,5,526.71Z"/><path class="cls-8" d="M5,531.06l-.19,0c-3.14-.59-3.35-2.11-3.29-2.73.27-3.16,8.27-3.64,13-3.65,7.25,0,11.64.86,13.07,2.59a1.93,1.93,0,0,1,.49,1.51,1.05,1.05,0,0,1-2.09-.09c-.21-.26-1.85-1.85-11.47-1.84-7.13,0-10,1-10.75,1.61a4.24,4.24,0,0,0,1.41.46A1.09,1.09,0,0,1,6,530.17,1.07,1.07,0,0,1,5,531.06Z"/></g><path class="cls-9" d="M4.32,524.54l-.2,0C.9,523.93.69,522.41.74,521.79c.29-3.16,8.5-3.64,13.37-3.65,7.44,0,12,.86,13.43,2.59a1.87,1.87,0,0,1,.5,1.51,1.08,1.08,0,0,1-2.15-.09c-.21-.26-1.9-1.85-11.78-1.84-7.33,0-10.27,1.05-11,1.61a4.39,4.39,0,0,0,1.45.46,1.09,1.09,0,0,1-.2,2.16Z"/><path class="cls-9" d="M4.33,528.89l-.2,0c-3.22-.59-3.44-2.11-3.38-2.73.28-3.16,8.49-3.65,13.36-3.65,7.45,0,12,.86,13.43,2.59a1.89,1.89,0,0,1,.51,1.51,1.09,1.09,0,0,1-1.25.89,1.1,1.1,0,0,1-.91-1c-.21-.26-1.89-1.85-11.77-1.84-7.33,0-10.27,1.05-11,1.61a4.84,4.84,0,0,0,1.44.46,1.09,1.09,0,0,1-.19,2.16Z"/><g class="cls-7"><path class="cls-8" d="M5,563.67l-.19,0c-3.14-.59-3.35-2.11-3.29-2.74.27-3.15,8.27-3.64,13-3.64,7.25,0,11.64.86,13.07,2.59a1.92,1.92,0,0,1,.49,1.51,1.06,1.06,0,0,1-1.22.89,1.07,1.07,0,0,1-.87-1c-.21-.26-1.85-1.84-11.47-1.83-7.13,0-10,1-10.75,1.6a4.42,4.42,0,0,0,1.41.47,1.09,1.09,0,0,1,.85,1.26A1.08,1.08,0,0,1,5,563.67Z"/><path class="cls-8" d="M5,568a.68.68,0,0,1-.2,0c-3.13-.59-3.34-2.1-3.29-2.73.28-3.16,8.27-3.64,13-3.65,7.25,0,11.65.86,13.08,2.6a1.92,1.92,0,0,1,.49,1.51,1.05,1.05,0,0,1-1.22.88,1.06,1.06,0,0,1-.88-1c-.2-.26-1.85-1.85-11.46-1.83-7.14,0-10,1.05-10.75,1.6a4.33,4.33,0,0,0,1.41.47,1.09,1.09,0,0,1,.85,1.26A1.07,1.07,0,0,1,5,568Z"/></g><path class="cls-9" d="M4.38,561.49a.68.68,0,0,1-.2,0C1,560.89.74,559.37.8,558.74c.28-3.16,8.49-3.64,13.36-3.65,7.45,0,12,.86,13.43,2.6a1.88,1.88,0,0,1,.51,1.5,1.07,1.07,0,0,1-1.25.89,1.09,1.09,0,0,1-.91-1c-.21-.26-1.89-1.85-11.77-1.83-7.33,0-10.27,1-11,1.6a4.49,4.49,0,0,0,1.44.47,1.08,1.08,0,0,1-.19,2.15Z"/><path class="cls-9" d="M4.39,565.84l-.2,0C1,565.23.75,563.71.81,563.09c.28-3.16,8.49-3.64,13.36-3.65,7.45,0,12,.86,13.43,2.59a1.9,1.9,0,0,1,.51,1.51,1.09,1.09,0,0,1-2.16-.09c-.21-.26-1.9-1.85-11.78-1.84-7.33,0-10.27,1-11,1.61a4.48,4.48,0,0,0,1.45.46,1.09,1.09,0,0,1-.19,2.16Z"/></g></g></svg>